<mxfile host="app.diagrams.net" modified="2023-05-30T17:06:20.370Z" agent="Mozilla/5.0 (X11; Linux x86_64) AppleWebKit/537.36 (KHTML, like Gecko) Chrome/107.0.0.0 Safari/537.36" etag="5jLPMJEMswqBNbOJPEhW" version="21.3.5" type="github">
  <diagram id="R2lEEEUBdFMjLlhIrx00" name="Page-1">
    <mxGraphModel dx="1216" dy="752" grid="1" gridSize="10" guides="1" tooltips="1" connect="1" arrows="1" fold="1" page="1" pageScale="1" pageWidth="850" pageHeight="1100" math="0" shadow="0" extFonts="Permanent Marker^https://fonts.googleapis.com/css?family=Permanent+Marker">
      <root>
        <mxCell id="0" />
        <mxCell id="1" parent="0" />
        <mxCell id="GidWD7nfvzzlmXZ8twNB-7" style="edgeStyle=orthogonalEdgeStyle;rounded=0;orthogonalLoop=1;jettySize=auto;html=1;exitX=0.5;exitY=1;exitDx=0;exitDy=0;entryX=0.5;entryY=0;entryDx=0;entryDy=0;" edge="1" parent="1" source="GidWD7nfvzzlmXZ8twNB-1" target="GidWD7nfvzzlmXZ8twNB-6">
          <mxGeometry relative="1" as="geometry" />
        </mxCell>
        <mxCell id="GidWD7nfvzzlmXZ8twNB-8" style="edgeStyle=orthogonalEdgeStyle;rounded=0;orthogonalLoop=1;jettySize=auto;html=1;exitX=1;exitY=0.5;exitDx=0;exitDy=0;entryX=1;entryY=0;entryDx=0;entryDy=0;" edge="1" parent="1" source="GidWD7nfvzzlmXZ8twNB-1" target="GidWD7nfvzzlmXZ8twNB-6">
          <mxGeometry relative="1" as="geometry" />
        </mxCell>
        <mxCell id="GidWD7nfvzzlmXZ8twNB-1" value="aerolÃ­nea" style="ellipse;whiteSpace=wrap;html=1;" vertex="1" parent="1">
          <mxGeometry x="130" y="130" width="80" height="50" as="geometry" />
        </mxCell>
        <mxCell id="GidWD7nfvzzlmXZ8twNB-9" style="edgeStyle=orthogonalEdgeStyle;rounded=0;orthogonalLoop=1;jettySize=auto;html=1;exitX=0;exitY=0.5;exitDx=0;exitDy=0;entryX=1;entryY=0.5;entryDx=0;entryDy=0;" edge="1" parent="1" source="GidWD7nfvzzlmXZ8twNB-2" target="GidWD7nfvzzlmXZ8twNB-1">
          <mxGeometry relative="1" as="geometry" />
        </mxCell>
        <mxCell id="GidWD7nfvzzlmXZ8twNB-2" value="aeropuerto" style="ellipse;whiteSpace=wrap;html=1;" vertex="1" parent="1">
          <mxGeometry x="360" y="130" width="90" height="45" as="geometry" />
        </mxCell>
        <mxCell id="GidWD7nfvzzlmXZ8twNB-4" value="tiquetes" style="ellipse;whiteSpace=wrap;html=1;" vertex="1" parent="1">
          <mxGeometry x="550" y="132.5" width="90" height="45" as="geometry" />
        </mxCell>
        <mxCell id="GidWD7nfvzzlmXZ8twNB-11" style="edgeStyle=orthogonalEdgeStyle;rounded=0;orthogonalLoop=1;jettySize=auto;html=1;exitX=0.5;exitY=0;exitDx=0;exitDy=0;entryX=0.5;entryY=1;entryDx=0;entryDy=0;" edge="1" parent="1" source="GidWD7nfvzzlmXZ8twNB-5" target="GidWD7nfvzzlmXZ8twNB-4">
          <mxGeometry relative="1" as="geometry" />
        </mxCell>
        <mxCell id="GidWD7nfvzzlmXZ8twNB-5" value="Pasajero" style="ellipse;whiteSpace=wrap;html=1;" vertex="1" parent="1">
          <mxGeometry x="550" y="290" width="90" height="45" as="geometry" />
        </mxCell>
        <mxCell id="GidWD7nfvzzlmXZ8twNB-6" value="Aviones" style="ellipse;whiteSpace=wrap;html=1;" vertex="1" parent="1">
          <mxGeometry x="120" y="320" width="90" height="45" as="geometry" />
        </mxCell>
      </root>
    </mxGraphModel>
  </diagram>
</mxfile>
